<mxfile host="app.diagrams.net" modified="2022-07-04T07:16:36.767Z" agent="5.0 (Windows NT 10.0; Win64; x64) AppleWebKit/537.36 (KHTML, like Gecko) Chrome/102.0.5005.124 Safari/537.36 Edg/102.0.1245.44" etag="qOsA0uYyJjYXJiIJSzoH" version="20.0.3" type="github">
  <diagram id="2_RPqlqdWzfG0cwzjeVh" name="Page-1">
    <mxGraphModel dx="1349" dy="977" grid="1" gridSize="10" guides="1" tooltips="1" connect="1" arrows="1" fold="1" page="1" pageScale="1" pageWidth="827" pageHeight="1169" math="0" shadow="0">
      <root>
        <mxCell id="0" />
        <mxCell id="1" parent="0" />
        <mxCell id="9_yFKXLl_1HZHt2PYPIF-3" value="" style="edgeStyle=orthogonalEdgeStyle;rounded=0;orthogonalLoop=1;jettySize=auto;html=1;fontFamily=Lucida Console;fontSize=16;" edge="1" parent="1" source="9_yFKXLl_1HZHt2PYPIF-1" target="9_yFKXLl_1HZHt2PYPIF-2">
          <mxGeometry relative="1" as="geometry" />
        </mxCell>
        <mxCell id="9_yFKXLl_1HZHt2PYPIF-1" value="[16, 3, 256, 256]" style="whiteSpace=wrap;html=1;fontFamily=Lucida Console;fontSize=16;" vertex="1" parent="1">
          <mxGeometry x="40" y="210" width="180" height="60" as="geometry" />
        </mxCell>
        <mxCell id="9_yFKXLl_1HZHt2PYPIF-2" value="model" style="whiteSpace=wrap;html=1;fontSize=16;fontFamily=Lucida Console;" vertex="1" parent="1">
          <mxGeometry x="70" y="340" width="120" height="60" as="geometry" />
        </mxCell>
        <mxCell id="9_yFKXLl_1HZHt2PYPIF-6" value="" style="edgeStyle=orthogonalEdgeStyle;rounded=0;orthogonalLoop=1;jettySize=auto;html=1;fontFamily=Lucida Console;fontSize=16;" edge="1" parent="1" source="9_yFKXLl_1HZHt2PYPIF-4" target="9_yFKXLl_1HZHt2PYPIF-2">
          <mxGeometry relative="1" as="geometry" />
        </mxCell>
        <mxCell id="9_yFKXLl_1HZHt2PYPIF-4" value="image_models[&quot;bmshj2018-factorized&lt;span style=&quot;background-color: initial;&quot;&gt;&quot;](quality=3)&lt;/span&gt;" style="whiteSpace=wrap;html=1;fontSize=16;fontFamily=Lucida Console;" vertex="1" parent="1">
          <mxGeometry x="270" y="340" width="240" height="60" as="geometry" />
        </mxCell>
        <mxCell id="9_yFKXLl_1HZHt2PYPIF-9" value="" style="edgeStyle=orthogonalEdgeStyle;rounded=0;orthogonalLoop=1;jettySize=auto;html=1;fontFamily=Lucida Console;fontSize=16;" edge="1" parent="1" source="9_yFKXLl_1HZHt2PYPIF-7" target="9_yFKXLl_1HZHt2PYPIF-4">
          <mxGeometry relative="1" as="geometry" />
        </mxCell>
        <mxCell id="9_yFKXLl_1HZHt2PYPIF-7" value="compressai.zoo&lt;br&gt;" style="whiteSpace=wrap;html=1;fontSize=16;fontFamily=Lucida Console;" vertex="1" parent="1">
          <mxGeometry x="311.25" y="555" width="157.5" height="40" as="geometry" />
        </mxCell>
        <mxCell id="9_yFKXLl_1HZHt2PYPIF-10" value="" style="shape=curlyBracket;whiteSpace=wrap;html=1;rounded=1;fontFamily=Lucida Console;fontSize=16;size=0.5;" vertex="1" parent="1">
          <mxGeometry x="470" y="420" width="20" height="310" as="geometry" />
        </mxCell>
        <mxCell id="9_yFKXLl_1HZHt2PYPIF-11" value="__init__.py&lt;br&gt;image_models=&lt;br&gt;{&quot;bmshj2018-factorized&quot;: bmshj2018_factorized, &lt;br&gt;&amp;nbsp; ……&lt;br&gt;}" style="whiteSpace=wrap;html=1;fontFamily=Lucida Console;fontSize=16;align=left;" vertex="1" parent="1">
          <mxGeometry x="500" y="420" width="450" height="90" as="geometry" />
        </mxCell>
        <mxCell id="9_yFKXLl_1HZHt2PYPIF-12" value="image.py &lt;br&gt;(download model &amp;amp;&amp;amp; set global parameters)&lt;br&gt;bmshj2018_factorized ……&lt;br&gt;&lt;br&gt;model_architectures[&quot;bmshj2018-factorized&quot;](*cfgs[architecture][quality], **kwargs)&lt;br&gt;&lt;br&gt;model_architecture=&lt;br&gt;{&quot;bmshj2018-factorized&quot;: FactorizedPrior,&lt;br&gt;……&lt;br&gt;}" style="whiteSpace=wrap;html=1;fontFamily=Lucida Console;fontSize=16;align=left;" vertex="1" parent="1">
          <mxGeometry x="500" y="520" width="450" height="210" as="geometry" />
        </mxCell>
        <mxCell id="9_yFKXLl_1HZHt2PYPIF-15" style="edgeStyle=orthogonalEdgeStyle;rounded=0;orthogonalLoop=1;jettySize=auto;html=1;entryX=1;entryY=0.5;entryDx=0;entryDy=0;fontFamily=Lucida Console;fontSize=16;" edge="1" parent="1" source="9_yFKXLl_1HZHt2PYPIF-13" target="9_yFKXLl_1HZHt2PYPIF-12">
          <mxGeometry relative="1" as="geometry" />
        </mxCell>
        <mxCell id="9_yFKXLl_1HZHt2PYPIF-20" style="edgeStyle=orthogonalEdgeStyle;rounded=0;orthogonalLoop=1;jettySize=auto;html=1;entryX=0.5;entryY=0;entryDx=0;entryDy=0;fontFamily=Lucida Console;fontSize=16;" edge="1" parent="1" source="9_yFKXLl_1HZHt2PYPIF-13" target="9_yFKXLl_1HZHt2PYPIF-18">
          <mxGeometry relative="1" as="geometry" />
        </mxCell>
        <mxCell id="9_yFKXLl_1HZHt2PYPIF-13" value="compressai.models" style="whiteSpace=wrap;html=1;fontSize=16;fontFamily=Lucida Console;align=center;" vertex="1" parent="1">
          <mxGeometry x="1080" y="595" width="175" height="60" as="geometry" />
        </mxCell>
        <mxCell id="9_yFKXLl_1HZHt2PYPIF-16" value="FactorizedPrior(CompressionModel)" style="whiteSpace=wrap;html=1;fontSize=16;fontFamily=Lucida Console;" vertex="1" parent="1">
          <mxGeometry x="1002.5" y="850" width="330" height="60" as="geometry" />
        </mxCell>
        <mxCell id="9_yFKXLl_1HZHt2PYPIF-21" style="edgeStyle=orthogonalEdgeStyle;rounded=0;orthogonalLoop=1;jettySize=auto;html=1;entryX=0.5;entryY=0;entryDx=0;entryDy=0;fontFamily=Lucida Console;fontSize=16;" edge="1" parent="1" source="9_yFKXLl_1HZHt2PYPIF-18" target="9_yFKXLl_1HZHt2PYPIF-16">
          <mxGeometry relative="1" as="geometry" />
        </mxCell>
        <mxCell id="9_yFKXLl_1HZHt2PYPIF-18" value="CompressionModel(nn.Module)" style="whiteSpace=wrap;html=1;fontSize=16;fontFamily=Lucida Console;" vertex="1" parent="1">
          <mxGeometry x="1031.25" y="730" width="272.5" height="60" as="geometry" />
        </mxCell>
      </root>
    </mxGraphModel>
  </diagram>
</mxfile>
